<?xml version="1.0"?>
<svg version="1.1" xmlns="http://www.w3.org/2000/svg" width="220" height="50" style=""><path fill="#e30e3f" d="M33.41,27.31c0,5.425-4.095,8.085-9.24,8.085c-0.28,0-1.855-0.07-2.1-0.105l0,7.77c0,0.525-0.21,0.84-0.875,0.84l-2.8,0c-0.56,0-0.84-0.245-0.84-0.945l0-22.33c0-0.7,0.21-0.945,0.875-0.945l5.075,0c3.71,0,6.44,0.7,8.155,2.66c1.12,1.295,1.75,3.08,1.75,4.97z M28.86,27.485c0-3.185-1.96-4.305-4.97-4.305l-1.82,0l0,8.68c0.28,0,1.855,0.035,2.065,0.035c2.975,0,4.725-1.4,4.725-4.41z M42.9825,43.025c0,0.595-0.28,0.875-0.77,0.875l-2.66,0c-0.49,0-0.805-0.245-0.805-0.84l0-22.96c0-0.595,0.245-0.77,0.7-0.84l2.52-0.35c0.07,0,0.175-0.035,0.245-0.035c0.42,0,0.77,0.21,0.77,0.77l0,23.38z M65.96,43.235c0,0.42-0.28,0.665-0.7,0.665l-1.68,0c-1.82,0-2.625-0.875-2.87-2.065l-0.07,0c-0.875,1.295-3.15,2.485-5.075,2.485c-4.935,0-7.175-4.06-7.175-8.61c0-6.055,3.64-9.24,7.56-9.24c1.855,0,3.605,0.84,4.48,2.03l0.07-0.945c0.035-0.385,0.315-0.63,0.735-0.63l2.45,0c0.455,0,0.735,0.245,0.735,0.77l0,12.145c0,0.49,0.07,0.84,0.21,1.015c0.105,0.105,0.245,0.14,0.42,0.14l0.28,0c0.42,0,0.63,0.14,0.63,0.595l0,1.645z M60.185,38.475l0-6.755c-0.7-1.015-2.135-1.785-3.465-1.785c-2.135,0-3.955,1.82-3.955,5.495c0,2.94,1.12,5.425,3.71,5.425c1.715,0,3.185-1.295,3.71-2.38z M86.3125,42.99c0,0.595-0.21,0.91-0.84,0.91l-2.52,0c-0.63,0-0.84-0.315-0.84-0.91l0-9.52c0-1.925-0.525-3.29-2.66-3.29c-1.365,0-3.045,0.735-4.13,1.68l0,11.165c0,0.595-0.245,0.875-0.84,0.875l-2.555,0c-0.525,0-0.84-0.28-0.84-0.84l0-15.26c0-0.56,0.245-0.875,0.875-0.875l2.275,0c0.49,0,0.805,0.14,0.84,0.665l0.035,0.91c1.61-1.295,3.64-2.03,5.67-2.03c3.92,0,5.53,2.45,5.53,6.265l0,10.255z M103.375,42.85c0,0.35-0.175,0.525-0.525,0.665c-1.085,0.455-2.52,0.805-3.92,0.805c-1.785,0-3.325-0.455-4.2-1.47c-1.085-1.225-1.12-2.66-1.12-5.215l0-7.805l-1.645,0c-0.665,0-0.77-0.14-0.77-0.875l0-1.33c0-0.42,0.21-0.7,0.63-0.7l1.785,0l0-3.815c0-0.595,0.315-0.77,0.875-0.84l2.52-0.315l0.175,0c0.455,0,0.665,0.245,0.665,0.77l0,4.2l3.955,0c0.42,0,0.665,0.14,0.665,0.595l0,1.645c0,0.42-0.28,0.665-0.7,0.665l-3.92,0l0,8.015c0,1.05,0.07,1.82,0.455,2.38c0.315,0.455,0.805,0.735,1.645,0.735c0.875,0,1.61-0.21,2.24-0.42c0.14-0.035,0.245-0.07,0.35-0.07c0.245,0,0.385,0.14,0.455,0.42l0.35,1.75c0.035,0.105,0.035,0.14,0.035,0.21z M127.4025,43.025c0,0.63-0.245,0.875-0.84,0.875l-2.765,0c-0.63,0-0.91-0.245-0.91-0.875l0-9.765l-9.94,0l0,9.765c0,0.63-0.28,0.875-0.875,0.875l-2.73,0c-0.63,0-0.945-0.245-0.945-0.875l0-22.505c0-0.595,0.385-0.84,0.945-0.84l2.73,0c0.56,0,0.875,0.21,0.875,0.84l0,9.135l9.94,0l0-9.135c0-0.595,0.35-0.84,0.91-0.84l2.765,0c0.56,0,0.84,0.21,0.84,0.84l0,22.505z M150.205,35.395c0,5.04-3.08,8.925-8.54,8.925c-5.705,0-8.33-3.85-8.33-8.96c0-5.04,3.08-8.89,8.54-8.89c5.705,0,8.33,3.78,8.33,8.925z M145.83,35.395c0-2.87-0.91-5.6-3.99-5.6c-3.115,0-4.13,2.695-4.13,5.495c0,2.87,0.875,5.705,3.99,5.705c3.08,0,4.13-2.73,4.13-5.6z M181.0225,43.025c0,0.63-0.245,0.875-0.84,0.875l-2.45,0c-0.63,0-0.91-0.245-0.91-0.875l0-9.59c0-1.89-0.49-3.325-2.625-3.325c-1.33,0-2.87,0.7-3.955,1.575c0.07,0.315,0.14,5.005,0.14,5.495l0,5.845c0,0.63-0.245,0.875-0.84,0.875l-2.31,0c-0.63,0-0.91-0.245-0.91-0.875l0-9.59c0-1.855-0.385-3.325-2.52-3.325c-1.365,0-2.765,0.77-3.885,1.75l0,11.165c0,0.63-0.28,0.875-0.875,0.875l-2.45,0c-0.63,0-0.91-0.245-0.91-0.875l0-15.295c0-0.56,0.315-0.805,0.84-0.805l2.275,0c0.525,0,0.84,0.175,0.875,0.665l0.035,0.875c1.435-1.26,3.325-1.995,5.145-1.995c2.135,0,3.64,0.945,4.445,2.275c1.575-1.505,3.85-2.275,5.985-2.275c2.555,0,4.165,1.26,4.9,2.625c0.665,1.295,0.84,2.835,0.84,5.075l0,8.855z M202.355,35.36c0,0.84-0.28,1.015-1.155,1.015l-10.255,0c0.28,2.695,2.24,4.55,5.005,4.55c1.47,0,3.01-0.35,4.305-0.84c0.14-0.035,0.245-0.105,0.385-0.105c0.245,0,0.42,0.14,0.49,0.42l0.49,1.785c0.035,0.175,0.07,0.315,0.07,0.42c0,0.245-0.14,0.42-0.56,0.595c-1.715,0.77-4.06,1.12-5.88,1.12c-5.495,0-8.75-3.5-8.75-8.96c0-5.25,3.465-8.89,8.68-8.89c2.135,0,3.885,0.805,5.11,2.1c1.61,1.68,2.065,3.885,2.065,6.265l0,0.525z M198.19,33.61l0-0.385c-0.07-1.82-1.12-3.5-3.255-3.5c-2.275,0-3.64,1.82-3.92,3.885l7.175,0z M211.9275,42.01c0,1.435-1.295,2.345-2.485,2.345c-1.225,0-2.485-0.84-2.485-2.31c0-1.505,1.19-2.38,2.485-2.38c1.26,0,2.485,0.875,2.485,2.345z"/><path fill="#" d=""/></svg>
